<?xml version="1.0" encoding="iso-8859-1"?>
<!-- Uploaded to: SVG Repo, www.svgrepo.com, Generator: SVG Repo Mixer Tools -->
<svg fill="#000000" height="800px" width="800px" version="1.1" id="Layer_1" xmlns="http://www.w3.org/2000/svg" xmlns:xlink="http://www.w3.org/1999/xlink" 
	 viewBox="0 0 512 512" xml:space="preserve">
<g>
	<g>
		<g>
			<path d="M413.227,304.64l-128.363-88.171l-3.563-3.435c-3.968-3.733-3.968-3.733-3.968-10.368
				c0-9.643,6.549-15.253,17.237-23.595C305.899,170.219,320,159.189,320,138.667c0-29.397-23.936-53.333-53.333-53.333
				s-53.333,23.936-53.333,53.333c0,5.888,4.779,10.667,10.667,10.667s10.667-4.779,10.667-10.667c0-17.643,14.357-32,32-32
				c17.643,0,32,14.357,32,32c0,9.643-6.549,15.253-17.237,23.595C270.101,171.115,256,182.144,256,202.667
				c0,14.272,3.435,19.072,10.709,25.899l134.208,93.461c5.803,4.224,4.437,10.197,3.861,11.925
				c-0.555,1.728-2.944,7.381-10.155,7.381H117.376c-7.189,0-9.579-5.653-10.155-7.381c-0.555-1.728-1.941-7.68,3.861-11.904
				l108.501-78.741c4.779-3.456,5.824-10.133,2.368-14.891c-3.477-4.779-10.155-5.845-14.891-2.368L98.539,304.811
				c-11.413,8.299-15.979,22.336-11.605,35.776c4.373,13.419,16.32,22.101,30.443,22.101h277.248
				c14.123,0,26.069-8.683,30.443-22.101C429.419,327.125,424.875,313.088,413.227,304.64z"/>
			<path d="M256,0C114.837,0,0,114.837,0,256s114.837,256,256,256s256-114.837,256-256S397.163,0,256,0z M256,490.667
				c-129.387,0-234.667-105.28-234.667-234.667S126.613,21.333,256,21.333S490.667,126.613,490.667,256S385.387,490.667,256,490.667
				z"/>
		</g>
	</g>
</g>
</svg>